<?xml version="1.0" standalone="no"?>
<!DOCTYPE svg PUBLIC "-//W3C//DTD SVG 20010904//EN"
 "http://www.w3.org/TR/2001/REC-SVG-20010904/DTD/svg10.dtd">
<svg version="1.0" xmlns="http://www.w3.org/2000/svg"
 width="1501.000000pt" height="1501.000000pt" viewBox="0 0 1501.000000 1501.000000"
 preserveAspectRatio="xMidYMid meet">
<metadata>
Created by potrace 1.14, written by Peter Selinger 2001-2017
</metadata>
<g transform="translate(0.000000,1501.000000) scale(0.100000,-0.100000)"
fill="#000000" stroke="none">
<path d="M540 11050 l0 -880 1125 0 1125 0 0 -2665 0 -2665 1090 0 1090 0 0
166 0 166 -125 130 c-742 770 -1097 1787 -994 2843 101 1039 678 2001 1555
2595 484 328 1054 535 1619 590 66 6 139 13 163 16 l42 5 0 290 0 289 -3345 0
-3345 0 0 -880z"/>
<path d="M7988 8678 c-675 -1789 -1225 -3254 -1223 -3256 2 -2 46 -15 99 -28
342 -87 657 -96 1007 -28 950 183 1723 928 1959 1889 17 66 30 130 30 142 l0
23 -196 0 c-153 0 -195 3 -192 13 3 6 221 706 484 1554 263 848 480 1541 481
1539 2 -1 219 -700 482 -1552 l479 -1549 -214 -3 c-212 -2 -214 -3 -218 -25
-3 -12 -15 -74 -26 -137 -73 -400 -249 -894 -429 -1198 l-30 -52 583 0 583 0
183 -585 183 -585 1150 0 c1090 0 1149 1 1145 18 -4 12 -2588 6884 -2655 7059
-4 11 -241 13 -1222 13 l-1216 0 -1227 -3252z"/>
<path d="M7176 11149 c-1356 -98 -2526 -1003 -2963 -2294 -182 -539 -225
-1128 -122 -1699 137 -760 550 -1471 1149 -1975 529 -445 1159 -710 1860 -782
144 -15 499 -15 645 0 1042 106 1948 659 2523 1539 100 153 232 412 306 598
116 294 196 637 222 952 l7 82 189 0 c148 0 189 3 186 13 -3 6 -171 542 -373
1190 -255 814 -372 1173 -377 1160 -10 -23 -738 -2349 -738 -2357 0 -3 68 -6
150 -6 l151 0 -6 -52 c-51 -435 -188 -820 -414 -1159 -115 -173 -197 -274
-332 -408 -382 -383 -862 -630 -1403 -722 -154 -27 -513 -37 -678 -20 -472 50
-904 220 -1296 513 -125 93 -397 365 -490 490 -291 390 -465 828 -513 1296
-17 168 -7 525 20 677 81 458 262 861 546 1213 129 159 344 359 520 483 549
385 1230 539 1902 429 103 -17 278 -57 323 -74 21 -8 348 733 329 745 -7 4
-60 21 -118 38 -393 115 -801 159 -1205 130z"/>
<path d="M7809 4176 c-175 -49 -304 -193 -345 -386 -22 -104 -15 -261 16 -353
48 -140 157 -258 287 -307 71 -27 224 -38 303 -21 240 52 390 257 390 536 0
269 -139 471 -365 530 -71 18 -221 18 -286 1z m306 -145 c144 -71 222 -254
196 -461 -29 -230 -174 -362 -383 -348 -226 15 -363 219 -329 492 18 147 62
231 156 296 101 70 244 78 360 21z"/>
<path d="M13871 4169 c-118 -21 -197 -74 -241 -162 -52 -105 -37 -218 40 -295
51 -51 117 -79 303 -128 174 -46 247 -77 268 -116 34 -64 28 -124 -19 -179
-37 -45 -101 -70 -192 -76 -163 -12 -290 59 -325 180 -16 55 -18 57 -49 57
-19 0 -48 -3 -66 -6 -32 -7 -32 -7 -27 -56 8 -61 59 -159 106 -200 123 -108
386 -139 544 -63 73 35 118 75 152 136 27 48 30 63 30 139 0 99 -19 145 -81
200 -56 49 -125 77 -300 120 -233 58 -277 87 -277 177 0 51 35 102 90 129 30
15 60 19 148 19 95 0 116 -3 152 -23 50 -26 91 -82 100 -135 l6 -38 66 7 c36
3 68 8 70 10 2 2 -1 29 -8 59 -24 108 -110 196 -224 230 -66 20 -197 27 -266
14z"/>
<path d="M2790 3645 l0 -526 273 3 c253 3 276 5 327 26 116 46 195 134 242
269 21 61 23 85 22 238 0 149 -3 177 -22 229 -46 125 -128 217 -231 258 -52
21 -73 23 -333 26 l-278 3 0 -526z m497 392 c99 -21 177 -96 209 -201 22 -73
29 -218 15 -303 -15 -83 -57 -177 -97 -215 -64 -60 -112 -72 -306 -76 l-178
-4 0 406 0 406 148 0 c81 0 175 -6 209 -13z"/>
<path d="M3820 3645 l0 -525 395 0 395 0 0 60 0 60 -325 0 -325 0 0 180 0 180
290 0 290 0 0 60 0 60 -290 0 -290 0 0 165 0 165 310 0 310 0 0 60 0 60 -380
0 -380 0 0 -525z"/>
<path d="M4700 4161 c0 -4 90 -240 199 -522 l199 -514 77 0 77 0 204 520 c112
286 204 521 204 523 0 1 -33 2 -73 2 l-72 0 -148 -397 c-81 -219 -157 -427
-169 -463 -17 -50 -23 -60 -29 -45 -4 11 -76 214 -159 450 -84 237 -155 436
-158 443 -5 14 -152 18 -152 3z"/>
<path d="M5770 3645 l0 -525 395 0 395 0 0 60 0 60 -325 0 -325 0 0 180 0 180
295 0 295 0 0 60 0 60 -292 2 -293 3 -3 163 -2 162 315 0 315 0 0 60 0 60
-385 0 -385 0 0 -525z"/>
<path d="M6750 3645 l0 -525 330 0 330 0 0 60 0 60 -260 0 -260 0 0 465 0 465
-70 0 -70 0 0 -525z"/>
<path d="M8600 3645 l0 -525 70 0 70 0 0 215 0 215 193 0 c210 0 276 10 346
54 80 51 125 145 125 262 0 72 -4 89 -33 148 -23 47 -44 74 -74 95 -80 55
-123 61 -424 61 l-273 0 0 -525z m524 395 c160 -37 187 -264 41 -340 -47 -24
-60 -25 -237 -28 l-188 -4 0 191 0 191 173 0 c94 0 190 -5 211 -10z"/>
<path d="M9560 3645 l0 -525 65 0 65 0 2 442 3 442 150 -442 150 -442 66 0 66
0 149 429 149 429 3 -429 2 -429 70 0 70 0 0 525 0 525 -97 0 -98 0 -138 -403
c-76 -221 -143 -419 -149 -439 -6 -21 -14 -38 -17 -38 -4 0 -72 197 -152 438
l-146 437 -106 3 -107 3 0 -526z"/>
<path d="M10750 3645 l0 -525 395 0 395 0 0 60 0 60 -322 2 -323 3 -3 178 -2
177 295 0 295 0 0 60 0 60 -292 2 -293 3 0 160 0 160 313 3 312 2 0 60 0 60
-385 0 -385 0 0 -525z"/>
<path d="M11690 3645 l0 -525 70 0 70 0 2 406 3 407 270 -406 270 -406 78 -1
77 0 0 525 0 525 -70 0 -70 0 -2 -406 -3 -407 -273 407 -273 406 -75 0 -74 0
0 -525z"/>
<path d="M12680 4110 l0 -60 175 0 175 0 0 -465 0 -465 70 0 70 0 0 465 0 465
175 0 175 0 0 60 0 60 -420 0 -420 0 0 -60z"/>
</g>
</svg>
